<svg width="24" height="24" viewBox="0 0 24 24" fill="none" xmlns="http://www.w3.org/2000/svg">
<path d="M19.7156 5.28166L12.2156 3.03166C12.1037 2.99805 11.9854 2.99108 11.8702 3.01131C11.7551 3.03154 11.6462 3.07841 11.5524 3.14818C11.4586 3.21795 11.3824 3.30868 11.3299 3.41314C11.2774 3.51759 11.25 3.63288 11.25 3.74979V13.8992C10.4819 13.2122 9.5013 12.8096 8.47206 12.7588C7.44282 12.7079 6.4273 13.0118 5.59523 13.6198C4.76317 14.2277 4.16496 15.1028 3.9006 16.0988C3.63624 17.0949 3.72173 18.1514 4.14279 19.092C4.56386 20.0325 5.29498 20.8001 6.21396 21.2663C7.13295 21.7326 8.18412 21.8693 9.1918 21.6536C10.1995 21.4379 11.1026 20.8829 11.7502 20.0814C12.3979 19.2798 12.7508 18.2803 12.75 17.2498V9.2576L19.2844 11.2179C19.3964 11.2515 19.5146 11.2585 19.6298 11.2383C19.7449 11.218 19.8538 11.1712 19.9476 11.1014C20.0414 11.0316 20.1176 10.9409 20.1701 10.8364C20.2226 10.732 20.25 10.6167 20.25 10.4998V5.99979C20.25 5.83855 20.198 5.68162 20.1017 5.55227C20.0054 5.42291 19.8701 5.32802 19.7156 5.28166Z" fill="#272727"/>
</svg>
