<svg width="24" height="24" viewBox="0 0 24 24" fill="none" xmlns="http://www.w3.org/2000/svg">
<path d="M21.5299 20.4686L16.8358 15.7755C18.1963 14.1421 18.8748 12.047 18.73 9.92618C18.5852 7.80531 17.6283 5.82191 16.0584 4.38859C14.4885 2.95526 12.4264 2.18235 10.3012 2.23065C8.1759 2.27895 6.15108 3.14474 4.64791 4.64791C3.14474 6.15108 2.27895 8.1759 2.23065 10.3012C2.18235 12.4264 2.95526 14.4885 4.38859 16.0584C5.82191 17.6283 7.80531 18.5852 9.92618 18.73C12.047 18.8748 14.1421 18.1963 15.7755 16.8358L20.4686 21.5299C20.5383 21.5995 20.621 21.6548 20.7121 21.6925C20.8031 21.7302 20.9007 21.7497 20.9992 21.7497C21.0978 21.7497 21.1954 21.7302 21.2864 21.6925C21.3775 21.6548 21.4602 21.5995 21.5299 21.5299C21.5995 21.4602 21.6548 21.3775 21.6925 21.2864C21.7302 21.1954 21.7497 21.0978 21.7497 20.9992C21.7497 20.9007 21.7302 20.8031 21.6925 20.7121C21.6548 20.621 21.5995 20.5383 21.5299 20.4686ZM3.74924 10.4992C3.74924 9.16421 4.14512 7.85917 4.88682 6.74914C5.62852 5.63911 6.68272 4.77394 7.91612 4.26305C9.14953 3.75216 10.5067 3.61849 11.8161 3.87894C13.1255 4.13939 14.3282 4.78226 15.2722 5.72627C16.2162 6.67027 16.8591 7.87301 17.1195 9.18238C17.38 10.4918 17.2463 11.849 16.7354 13.0824C16.2245 14.3158 15.3594 15.37 14.2493 16.1117C13.1393 16.8534 11.8343 17.2492 10.4992 17.2492C8.70964 17.2473 6.9939 16.5355 5.72846 15.27C4.46302 14.0046 3.75122 12.2888 3.74924 10.4992Z" fill="#767676"/>
</svg>
