<svg width="40" height="40" viewBox="0 0 40 40" fill="none" xmlns="http://www.w3.org/2000/svg">
<path fill-rule="evenodd" clip-rule="evenodd" d="M20.5 6C27.9561 6 34 12.1964 34 19.8415C34 25.9556 30.1363 31.1423 24.7755 32.9743C24.091 33.1106 23.848 32.6784 23.848 32.3098C23.848 31.8535 23.8642 30.3632 23.8642 28.511C23.8642 27.2204 23.4322 26.3781 22.9476 25.9488C25.954 25.6059 29.113 24.4353 29.113 19.119C29.113 17.607 28.5892 16.3732 27.7225 15.4039C27.8629 15.0542 28.3259 13.6463 27.5902 11.7401C27.5902 11.7401 26.4589 11.3693 23.8817 13.1594C22.8031 12.8529 21.6475 12.6987 20.5 12.6933C19.3525 12.6987 18.1983 12.8529 17.121 13.1594C14.5411 11.3693 13.4071 11.7401 13.4071 11.7401C12.6741 13.6463 13.1371 15.0542 13.2762 15.4039C12.4135 16.3732 11.8857 17.607 11.8857 19.119C11.8857 24.4218 15.0379 25.6103 18.0363 25.96C17.6502 26.3056 17.3005 26.9152 17.179 27.8103C16.4095 28.164 14.4547 28.7761 13.2505 26.6607C13.2505 26.6607 12.5364 25.3307 11.181 25.2335C11.181 25.2335 9.8647 25.2161 11.0891 26.0747C11.0891 26.0747 11.9734 26.4999 12.5877 28.0997C12.5877 28.0997 13.3801 30.5701 17.1358 29.7331C17.1426 30.8901 17.1547 31.9804 17.1547 32.3098C17.1547 32.6757 16.9063 33.1039 16.2326 32.9756C10.8677 31.1464 7 25.957 7 19.8415C7 12.1964 13.0453 6 20.5 6Z" fill="#959595"/>
</svg>
