<svg width="50" height="50" viewBox="0 0 50 50" fill="none" xmlns="http://www.w3.org/2000/svg">
<path d="M40.3 25C41.7912 25 43.0207 23.7845 42.7979 22.3101C42.4043 19.7057 41.442 17.208 39.9665 14.9997C37.9886 12.0397 35.1774 9.73255 31.8883 8.37017C28.5992 7.00779 24.98 6.65133 21.4884 7.34586C17.9967 8.0404 14.7894 9.75473 12.2721 12.2721C9.75473 14.7894 8.0404 17.9967 7.34586 21.4884C6.65133 24.98 7.00779 28.5992 8.37017 31.8883C9.73255 35.1774 12.0397 37.9886 14.9997 39.9665C17.208 41.442 19.7057 42.4043 22.3101 42.7979C23.7845 43.0207 25 41.7912 25 40.3V40.3C25 38.8088 23.7776 37.6289 22.3206 37.3118C20.7858 36.9778 19.319 36.358 17.9998 35.4765C15.9278 34.092 14.3128 32.1242 13.3591 29.8218C12.4055 27.5195 12.1559 24.986 12.6421 22.5419C13.1283 20.0977 14.3283 17.8526 16.0905 16.0905C17.8526 14.3283 20.0977 13.1283 22.5419 12.6421C24.986 12.1559 27.5195 12.4055 29.8218 13.3591C32.1242 14.3128 34.092 15.9278 35.4765 17.9998C36.358 19.319 36.9778 20.7858 37.3118 22.3206C37.6289 23.7776 38.8088 25 40.3 25V25Z" fill="white"/>
</svg>
