<svg width="40" height="40" viewBox="0 0 40 40" fill="none" xmlns="http://www.w3.org/2000/svg">
<path d="M12.3636 14.5833C12.3636 10.3952 15.7826 7 20 7C24.2174 7 27.6364 10.3952 27.6364 14.5833C27.6364 18.7715 24.2174 22.1667 20 22.1667C15.7826 22.1667 12.3636 18.7715 12.3636 14.5833Z" fill="#959595"/>
<path d="M26.1246 22.2005C29.4248 22.5338 32 25.3015 32 28.6667V30.8333C32 32.03 31.0232 33 29.8182 33H10.1818C8.97683 33 8 32.03 8 30.8333V28.6667C8 25.3018 10.5746 22.5343 13.8743 22.2005C15.5537 23.5342 17.6824 24.3333 20 24.3333C22.3173 24.3333 24.4453 23.5339 26.1246 22.2005Z" fill="#959595"/>
</svg>
