<svg width="40" height="40" viewBox="0 0 40 40" fill="none" xmlns="http://www.w3.org/2000/svg">
<path d="M17.9766 4.54199C19.2287 3.81926 20.7713 3.81927 22.0234 4.54199L31.9766 10.2881C33.2288 11.0111 34 12.3479 34 13.7939V25.2861C33.9998 26.7319 33.2286 28.068 31.9766 28.791L22.0234 34.5371C20.7713 35.2599 19.2287 35.2599 17.9766 34.5371L8.02344 28.791C6.7714 28.068 6.00017 26.7319 6 25.2861V13.7939C6 12.3479 6.77121 11.0111 8.02344 10.2881L17.9766 4.54199ZM28.3896 18.7207C27.8745 18.7207 27.4116 18.8146 27.002 19.002C26.5951 19.1868 26.2716 19.4434 26.0312 19.7715C25.7908 20.1 25.6665 20.4805 25.6592 20.9111H27.1865C27.1939 20.7213 27.2514 20.5552 27.3594 20.4141C27.4673 20.273 27.611 20.1652 27.79 20.0898C27.9691 20.012 28.1669 19.9727 28.3828 19.9727C28.5959 19.9727 28.7821 20.0127 28.9414 20.0928C29.1033 20.1731 29.2291 20.2852 29.3174 20.4287C29.4082 20.5698 29.4531 20.7345 29.4531 20.9219C29.4531 21.1187 29.4017 21.2912 29.2988 21.4395C29.1958 21.5854 29.0507 21.7005 28.8643 21.7832C28.6803 21.8659 28.4679 21.9072 28.2275 21.9072H27.5254V23.0674H28.2275C28.5121 23.0674 28.7578 23.1116 28.9639 23.1992C29.1724 23.2868 29.332 23.4087 29.4424 23.5645C29.5551 23.7177 29.6113 23.8944 29.6113 24.0938C29.6112 24.2907 29.5585 24.4645 29.4531 24.6152C29.3476 24.766 29.202 24.8846 29.0156 24.9697C28.8292 25.0549 28.614 25.0967 28.3711 25.0967C28.1381 25.0967 27.9286 25.0588 27.7422 24.9834C27.5557 24.908 27.4058 24.8023 27.293 24.666C27.1827 24.5274 27.1221 24.367 27.1123 24.1846H25.5078C25.5152 24.6201 25.6424 25.0045 25.8877 25.3379C26.1355 25.6687 26.4726 25.9294 26.8994 26.1191C27.3286 26.3064 27.8179 26.4003 28.3672 26.4004C28.9315 26.4004 29.4324 26.305 29.8691 26.1152C30.3058 25.9255 30.6477 25.6649 30.8955 25.334C31.1457 25.0031 31.27 24.625 31.2676 24.1992C31.27 23.7345 31.125 23.3471 30.833 23.0381C30.5435 22.7269 30.1216 22.5364 29.5674 22.4658V22.4072C29.9893 22.3318 30.3312 22.1538 30.5938 21.874C30.8586 21.5943 30.9906 21.2455 30.9883 20.8271C30.9907 20.433 30.8824 20.0771 30.6641 19.7607C30.4482 19.4421 30.1449 19.1893 29.7549 19.002C29.3648 18.8146 28.9097 18.7207 28.3896 18.7207ZM13.0391 13.0898V19.5645C13.039 19.9878 12.9521 20.3181 12.7793 20.5557C12.6108 20.7889 12.3691 20.9062 12.0537 20.9062C11.7038 20.9062 11.453 20.8087 11.3018 20.6143C11.1549 20.4199 11.0821 20.1066 11.082 19.6748H8.80078C8.80085 20.6252 9.08598 21.3595 9.65625 21.8779C10.2266 22.3963 11.0255 22.6562 12.0537 22.6562C12.6673 22.6562 13.2228 22.5258 13.7197 22.2666C14.2207 22.0074 14.6093 21.6426 14.8857 21.1719C15.1666 20.701 15.3076 20.165 15.3076 19.5645V13.0898H13.0391ZM20.3623 12.96C19.6669 12.96 19.0406 13.0723 18.4834 13.2969C17.926 13.5172 17.4933 13.8286 17.1865 14.2305C16.8843 14.6278 16.7335 15.0878 16.7334 15.6104C16.7334 16.6603 17.3446 17.4863 18.5674 18.0869C18.9433 18.2727 19.4276 18.4643 20.0195 18.6631C20.6112 18.8618 21.0235 19.0545 21.2568 19.2402C21.4944 19.426 21.6132 19.6851 21.6133 20.0176C21.6133 20.3114 21.5035 20.5409 21.2832 20.7051C21.0672 20.8649 20.7712 20.9443 20.3955 20.9443C19.8079 20.9443 19.3817 20.8255 19.1182 20.5879C18.8591 20.3459 18.7295 19.9721 18.7295 19.4668H16.4482C16.4482 20.089 16.6039 20.6405 16.915 21.1201C17.2304 21.5951 17.6969 21.9706 18.3145 22.2471C18.9366 22.5193 19.6307 22.6562 20.3955 22.6562C21.4798 22.6562 22.333 22.4201 22.9551 21.9492C23.5773 21.4783 23.8887 20.8302 23.8887 20.0049C23.8886 18.9723 23.3789 18.1618 22.3594 17.5742C21.9403 17.3323 21.4043 17.1078 20.752 16.9004C20.0995 16.6887 19.643 16.4855 19.3838 16.291C19.1247 16.0923 18.9951 15.8718 18.9951 15.6299C18.9952 15.3535 19.1115 15.1263 19.3447 14.9492C19.5823 14.7678 19.9045 14.6778 20.3105 14.6777C20.7124 14.6777 21.0303 14.7834 21.2637 14.9951C21.5013 15.2068 21.6201 15.5051 21.6201 15.8896H23.8887C23.8887 15.3151 23.7394 14.8053 23.4414 14.3604C23.1433 13.911 22.7237 13.5652 22.1836 13.3232C21.6479 13.0813 21.0406 12.96 20.3623 12.96Z" fill="#959595"/>
</svg>
