<svg width="40" height="40" viewBox="0 0 40 40" fill="none" xmlns="http://www.w3.org/2000/svg">
<path d="M28 10C29.6569 10 31 11.3431 31 13V28C31 29.6569 29.6569 31 28 31H13C11.3431 31 10 29.6569 10 28V13C10 11.3431 11.3431 10 13 10H28ZM23.876 15.1406L21.0986 15.4873C21.0334 15.4955 20.9687 15.5105 20.9062 15.5312L19.8926 15.8691C19.6412 15.953 19.433 16.1331 19.3145 16.3701L19.1055 16.7891C19.0361 16.9279 19 17.0812 19 17.2363V22.2646C18.9999 22.4154 18.9396 22.5604 18.833 22.667C18.6196 22.8802 18.33 23 18.0283 23H17.7676C16.7914 23.0001 16.0001 23.7914 16 24.7676V25C16 25.8284 16.6716 26.5 17.5 26.5H18C19.1046 26.5 20 25.6046 20 24.5V19.8955C20 19.386 20.3832 18.9576 20.8896 18.9014L23.959 18.5605C24.296 18.5231 24.5914 18.3169 24.7432 18.0137L24.8945 17.7109C24.9639 17.5721 25 17.4188 25 17.2637V16.1328C25 15.5313 24.4728 15.066 23.876 15.1406Z" fill="#959595"/>
<rect x="13" y="7" width="15" height="2" rx="1" fill="#959595"/>
<rect x="14" y="4" width="13" height="2" rx="1" fill="#959595"/>
</svg>
