<svg width="40" height="40" viewBox="0 0 40 40" fill="none" xmlns="http://www.w3.org/2000/svg">
<path d="M16.7 9.95V10.9H11.95C11.4253 10.9 11 11.3253 11 11.85V12.8C11 13.3247 11.4253 13.75 11.95 13.75H29.05C29.5747 13.75 30 13.3247 30 12.8V11.85C30 11.3253 29.5747 10.9 29.05 10.9H24.3V9.95C24.3 9.42533 23.8747 9 23.35 9H17.65C17.1253 9 16.7 9.42533 16.7 9.95Z" fill="#F73B48"/>
<path d="M12.8271 15.6504H28.1731L27.2779 27.7359C27.1676 29.2242 25.928 30.3754 24.4357 30.3754H16.5646C15.0722 30.3754 13.8326 29.2242 13.7224 27.7359L12.8271 15.6504Z" fill="#F73B48"/>
</svg>
