<svg width="40" height="40" viewBox="0 0 40 40" fill="none" xmlns="http://www.w3.org/2000/svg">
<path fill-rule="evenodd" clip-rule="evenodd" d="M8 20C8 14.3431 8 11.5147 9.75736 9.75736C11.5147 8 14.3431 8 20 8C25.6568 8 28.4853 8 30.2426 9.75736C32 11.5147 32 14.3431 32 20C32 25.6568 32 28.4853 30.2426 30.2426C28.4853 32 25.6568 32 20 32C14.3431 32 11.5147 32 9.75736 30.2426C8 28.4853 8 25.6568 8 20ZM20 26.9C20.497 26.9 20.9 26.497 20.9 26V19.7728L22.9636 21.8364C23.3151 22.1878 23.8849 22.1878 24.2364 21.8364C24.5878 21.4849 24.5878 20.9151 24.2364 20.5636L20.6364 16.9636C20.4676 16.7948 20.2387 16.7 20 16.7C19.7613 16.7 19.5324 16.7948 19.3636 16.9636L15.7636 20.5636C15.4121 20.9151 15.4121 21.4849 15.7636 21.8364C16.1151 22.1878 16.6849 22.1878 17.0364 21.8364L19.1 19.7728V26C19.1 26.497 19.503 26.9 20 26.9ZM15.2 14.9C14.7029 14.9 14.3 14.4971 14.3 14C14.3 13.5029 14.7029 13.1 15.2 13.1H24.8C25.297 13.1 25.7 13.5029 25.7 14C25.7 14.4971 25.297 14.9 24.8 14.9H15.2Z" fill="#3BF748"/>
</svg>
