<svg width="40" height="40" viewBox="0 0 40 40" fill="none" xmlns="http://www.w3.org/2000/svg">
<path d="M35.6665 18.4936V21.5083C35.6665 22.3132 34.9802 22.9717 34.1068 23.001H31.0497C29.3652 23.001 27.8211 21.8449 27.6807 20.2644C27.5872 19.3424 27.9615 18.479 28.6166 17.879C29.1937 17.3229 29.9891 17.001 30.8626 17.001H34.1068C34.9802 17.0302 35.6665 17.6888 35.6665 18.4936Z" fill="#959595"/>
<path d="M33.2319 25.4294H31.0461C28.1419 25.4294 25.6962 23.2424 25.4517 20.4588C25.3141 18.8682 25.8949 17.2776 27.0566 16.1459C28.0349 15.1365 29.3953 14.5706 30.8626 14.5706H33.2319C33.6751 14.5706 34.042 14.2035 33.9961 13.76C33.6598 10.0435 31.1989 7.50471 27.5457 7.07647C27.1789 7.01529 26.7968 7 26.3994 7H12.6426C12.2146 7 11.8019 7.03059 11.4045 7.09176C7.50678 7.58118 5 10.4871 5 14.6471V25.3529C5 29.5741 8.4239 33 12.6426 33H26.3994C30.6792 33 33.6293 30.3235 33.9961 26.24C34.042 25.7965 33.6751 25.4294 33.2319 25.4294ZM21.8138 16.5588H12.6426C12.0159 16.5588 11.4962 16.0388 11.4962 15.4118C11.4962 14.7847 12.0159 14.2647 12.6426 14.2647H21.8138C22.4405 14.2647 22.9602 14.7847 22.9602 15.4118C22.9602 16.0388 22.4405 16.5588 21.8138 16.5588Z" fill="#959595"/>
</svg>
